# xmcd
#
# Track frame offsets: 
#        150
#        16500
#        27197
#        39887
#        58457
#        76120
#        86295
#        98475
#        116207
#        126745
#        145262
#        158805
#        169622
#
# Disc length: 2414 seconds
#
# Revision: 10
# Processed by: cddbd v1.5.2PL0 Copyright (c) Steve Scherf et al.
# Submitted via: ExactAudioCopy v1.3
#
DISCID=9a096c0d
DTITLE=Various Artist - French Café
DYEAR=2003
DGENRE=Pop
TTITLE0=Paris Combo - Fibre de verre
TTITLE1=Serge Gainsbourg - Marilou sous la neige
TTITLE2=Barbara - Si la photo est bonne
TTITLE3=Enzo Enzo - Juste quelqu'un de bien
TTITLE4=Georges Brassens - Je me suis fait tout petit
TTITLE5=Jane Birkin - Elaeudanla Téitéia
TTITLE6=Coralie Clément -  La mer opale
TTITLE7=Mathieu Boogaerts - Ondulé
TTITLE8=Brigitte Bardot - Un jour comme un autre
TTITLE9=Paris Combo - On n'a pas besoin
TTITLE10=Sanseverino - Mal ô mains
TTITLE11=Baguette Quartette - En douce
TTITLE12=Polo - La fee clochette
EXTD=
EXTT0=
EXTT1=
EXTT2=
EXTT3=
EXTT4=
EXTT5=
EXTT6=
EXTT7=
EXTT8=
EXTT9=
EXTT10=
EXTT11=
EXTT12=
PLAYORDER=
